{"title":"RUSSIAN FATTIES MARGO ","uid":6494601,"size":435392516,"categoryP":"porn","categoryS":"movie_clips","magnet":"?xt=urn:btih:4855887ad4ab9b9e3e6eadc8f9d0bda47e6aa864&amp;dn=RUSSIAN+FATTIES+MARGO+&amp;tr=udp%3A%2F%2Ftracker.openbittorrent.com%3A80&amp;tr=udp%3A%2F%2Fopen.demonii.com%3A1337&amp;tr=udp%3A%2F%2Ftracker.coppersurfer.tk%3A6969&amp;tr=udp%3A%2F%2Fexodus.desync.com%3A6969","seeders":0,"leechers":1,"uploader":"dodgerblue","files":1,"time":1309014725,"description":"RUSSIAN FATTIES MARGO &lt;a href=&quot;\nhttp://leetleech.org/images/96764355626379744567.jpg&quot; rel=&quot;nofollow&quot; target=&quot;_NEW&quot;&gt;\nhttp://leetleech.org/images/96764355626379744567.jpg&lt;/a&gt;\nFormat                           : MPEG-PS\nFile size                        : 415 MiB\nDuration                         : 20mn 47s\nOverall bit rate                 : 2 793 Kbps\n\nVideo\nID                               : 224 (0xE0)\nFormat                           : MPEG Video\nFormat version                   : Version 1\nFormat settings, BVOP            : Yes\nFormat settings, Matrix          : Default\nDuration                         : 20mn 47s\nBit rate mode                    : Constant\nBit rate                         : 2 600 Kbps\nWidth                            : 720 pixels\nHeight                           : 576 pixels\nDisplay aspect ratio             : 5:4\nFrame rate                       : 25.000 fps\nStandard                         : PAL\nColor space                      : YUV\nBit depth                        : 8 bits\nScan type                        : Progressive\nCompression mode                 : Lossy\nBits/(Pixel*Frame)               : 0.251\nStream size                      : 388 MiB (93%)\n\nAudio\nID                               : 192 (0xC0)\nFormat                           : MPEG Audio\nFormat version                   : Version 1\nFormat profile                   : Layer 2\nDuration                         : 20mn 47s\nBit rate mode                    : Constant\nBit rate                         : 128 Kbps\nChannel(s)                       : 2 channels\nSampling rate                    : 44.1 KHz\nCompression mode                 : Lossy\nStream size                      : 19.0 MiB (5%)\n[img]http://torrent-stats.info/adc8/f5fb43e0.png[/img]\n","torrent":{"xt":"urn:btih:4855887ad4ab9b9e3e6eadc8f9d0bda47e6aa864","amp;dn":"RUSSIAN+FATTIES+MARGO+","amp;tr":["udp%3A%2F%2Ftracker.openbittorrent.com%3A80","udp%3A%2F%2Fopen.demonii.com%3A1337","udp%3A%2F%2Ftracker.coppersurfer.tk%3A6969","udp%3A%2F%2Fexodus.desync.com%3A6969"],"infoHash":"4855887ad4ab9b9e3e6eadc8f9d0bda47e6aa864","infoHashBuffer":{"type":"Buffer","data":[72,85,136,122,212,171,155,158,62,110,173,200,249,208,189,164,126,106,168,100]},"announce":[],"urlList":[]}}